HIERARCHY
ROOT Hips
{
	OFFSET 0.00000 0.00000 0.00000
	CHANNELS 6 Xposition Yposition Zposition Zrotation Yrotation Xrotation 
	JOINT LHipJoint
	{
		OFFSET 0 0 0
		CHANNELS 3 Zrotation Yrotation Xrotation
		JOINT LeftUpLeg
		{
			OFFSET 1.41496 -1.84582 0.78394
			CHANNELS 3 Zrotation Yrotation Xrotation
			JOINT LeftLeg
			{
				OFFSET 2.58040 -7.08960 0.00000
				CHANNELS 3 Zrotation Yrotation Xrotation
				JOINT LeftFoot
				{
					OFFSET 2.64719 -7.27309 0.00000
					CHANNELS 3 Zrotation Yrotation Xrotation
					JOINT LeftToeBase
					{
						OFFSET 0.20718 -0.56921 2.20259
						CHANNELS 3 Zrotation Yrotation Xrotation
						End Site
						{
							OFFSET 0.00000 -0.00000 1.14243
						}
					}
				}
			}
		}
	}
	JOINT RHipJoint
	{
		OFFSET 0 0 0
		CHANNELS 3 Zrotation Yrotation Xrotation
		JOINT RightUpLeg
		{
			OFFSET -1.40551 -1.84582 0.78394
			CHANNELS 3 Zrotation Yrotation Xrotation
			JOINT RightLeg
			{
				OFFSET -2.56572 -7.04926 0.00000
				CHANNELS 3 Zrotation Yrotation Xrotation
				JOINT RightFoot
				{
					OFFSET -2.57974 -7.08778 0.00000
					CHANNELS 3 Zrotation Yrotation Xrotation
					JOINT RightToeBase
					{
						OFFSET -0.26704 -0.73369 2.20815
						CHANNELS 3 Zrotation Yrotation Xrotation
						End Site
						{
							OFFSET -0.00000 -0.00000 1.16246
						}
					}
				}
			}
		}
	}
	JOINT LowerBack
	{
		OFFSET 0 0 0
		CHANNELS 3 Zrotation Yrotation Xrotation
		JOINT Spine
		{
			OFFSET -0.04690 2.05196 -0.07017
			CHANNELS 3 Zrotation Yrotation Xrotation
			JOINT Spine1
			{
				OFFSET 0.04085 2.05260 0.00800
				CHANNELS 3 Zrotation Yrotation Xrotation
				JOINT Neck
				{
					OFFSET 0 0 0
					CHANNELS 3 Zrotation Yrotation Xrotation
					JOINT Neck1
					{
						OFFSET -0.03582 1.80995 0.19301
						CHANNELS 3 Zrotation Yrotation Xrotation
						JOINT Head
						{
							OFFSET 0.00952 1.80195 -0.36389
							CHANNELS 3 Zrotation Yrotation Xrotation
							End Site
							{
								OFFSET 0.00392 1.85062 -0.14494
							}
						}
					}
				}
				JOINT LeftShoulder
				{
					OFFSET 0 0 0
					CHANNELS 3 Zrotation Yrotation Xrotation
					JOINT LeftArm
					{
						OFFSET 3.55224 1.39726 -0.13667
						CHANNELS 3 Zrotation Yrotation Xrotation
						JOINT LeftForeArm
						{
							OFFSET 5.14507 -0.00000 -0.00000
							CHANNELS 3 Zrotation Yrotation Xrotation
							JOINT LeftHand
							{
								OFFSET 3.50646 -0.00000 0.00000
								CHANNELS 3 Zrotation Yrotation Xrotation
								JOINT LeftFingerBase
								{
									OFFSET 0 0 0
									CHANNELS 3 Zrotation Yrotation Xrotation
									JOINT LeftHandIndex1
									{
										OFFSET 0.62997 -0.00000 0.00000
										CHANNELS 3 Zrotation Yrotation Xrotation
										End Site
										{
											OFFSET 0.50790 -0.00000 0.00000
										}
									}
								}
								JOINT LThumb
								{
									OFFSET 0 0 0
									CHANNELS 3 Zrotation Yrotation Xrotation
									End Site
									{
										OFFSET 0.51565 -0.00000 0.51565
									}
								}
							}
						}
					}
				}
				JOINT RightShoulder
				{
					OFFSET 0 0 0
					CHANNELS 3 Zrotation Yrotation Xrotation
					JOINT RightArm
					{
						OFFSET -3.06467 1.61290 -0.28813
						CHANNELS 3 Zrotation Yrotation Xrotation
						JOINT RightForeArm
						{
							OFFSET -5.23200 -0.00000 -0.00000
							CHANNELS 3 Zrotation Yrotation Xrotation
							JOINT RightHand
							{
								OFFSET -3.65641 -0.00000 0.00000
								CHANNELS 3 Zrotation Yrotation Xrotation
								JOINT RightFingerBase
								{
									OFFSET 0 0 0
									CHANNELS 3 Zrotation Yrotation Xrotation
									JOINT RightHandIndex1
									{
										OFFSET -0.65681 -0.00000 0.00000
										CHANNELS 3 Zrotation Yrotation Xrotation
										End Site
										{
											OFFSET -0.52953 -0.00000 0.00000
										}
									}
								}
								JOINT RThumb
								{
									OFFSET 0 0 0
									CHANNELS 3 Zrotation Yrotation Xrotation
									End Site
									{
										OFFSET -0.53762 -0.00000 0.53762
									}
								}
							}
						}
					}
				}
			}
		}
	}
}
MOTION
Frames: 8
Frame Time: 0.037037
0.00 0.00 0.00 0 0 0 0 0 0 -21 0 0 0 0 0 0 0 0 0 0 0 0 0 0 21 0 0 0 0 0 0 0 0 0 0 0 0 0 0 0 0 0 0 0 0 0 0 -16 0 0 21 0 0 11 0 0 0 -8 0 0 0 0 0 0 0 0 0 0 0 0 0 0 0 0 0 0 0 0 8 0 0 0 0 0 0 0 0 0 0 0 0 0 0 0 0 0
0.00 0.00 0.00 -174.0280 8.4409 -154.7060 0.0000 0.0000 0.0000 -10.9248 -9.7142 -68.0802 13.4972 18.9544 70.6629 -0.3332 -20.4635 -11.5367 0.2209 3.0254 8.3495 0.0000 0.0000 0.0000 21.9261 3.3245 -3.1877 -6.6049 -14.9900 47.3639 -1.2088 -4.8722 19.7409 -1.9513 8.7640 -25.0598 5.4372 -0.2252 16.0763 4.0708 1.4329 0.2250 0.9563 0.6984 -8.8043 1.3721 0.0998 -17.6448 -3.2092 0.5859 -1.6013 -1.2454 0.4130 2.5715 -0.0000 -0.0000 0.0000 -83.3851 42.7905 40.2474 86.2901 -59.9479 -56.7877 -0.0000 0.0000 -11.0620 27.0182 -2.3529 -1.1993 -7.1250 0.0000 -0.0000 0.3295 27.3390 -0.1414 -0.0000 -0.0000 0.0000 85.5417 -4.7170 41.6871 -71.6495 58.6886 -44.1780 0.0000 -0.0000 -3.0261 -23.6640 -0.2813 0.1233 7.1250 -0.0000 -0.0000 2.2942 -30.2828 0.8248
0.00 0.00 0.00 -177.4580 6.8546 -155.1200 0.0000 0.0000 0.0000 -17.4738 -10.7153 -58.5508 12.0752 18.4223 66.2271 0.9541 -18.6826 -20.4275 0.7722 5.6110 15.6598 0.0000 0.0000 0.0000 17.9776 2.1922 -15.0558 -11.8655 -18.3332 65.5620 -0.4252 -5.6471 11.6756 -0.2837 3.4258 -9.4665 3.2712 -1.3568 16.0552 3.5607 -0.6139 -0.2892 2.1296 -0.2564 -9.3605 1.6216 0.5222 -17.1304 -3.1962 1.0756 -1.8259 -1.2461 0.6546 2.4142 -0.0000 -0.0000 0.0000 -86.6315 33.7409 38.7397 85.9540 -59.9381 -56.4968 -0.0000 0.0000 -10.2444 29.0114 -0.9853 -0.5464 -7.1250 0.0000 -0.0000 1.9036 28.8510 -0.7491 -0.0000 -0.0000 0.0000 87.6765 -9.9418 34.6088 -54.8105 54.7605 -30.0612 0.0000 -0.0000 -4.6857 -24.7366 -1.8830 0.8673 7.1250 -0.0000 -0.0000 1.4847 -32.0506 0.4707
0.00 0.00 0.00 -181.8410 5.4456 -155.7450 0.0000 0.0000 0.0000 -23.4856 -12.4866 -49.7446 11.1316 17.9989 63.2082 1.6854 -18.9480 -25.0817 1.0442 6.4986 18.2381 0.0000 0.0000 0.0000 12.2384 1.2943 -27.3648 -17.3400 -19.8295 82.2014 0.0028 -4.5029 3.0468 -0.0071 0.5437 -1.4940 0.1261 -2.3963 16.4663 2.8553 -2.7472 -0.7095 3.7027 -1.1789 -9.9006 1.6291 0.7960 -16.8943 -2.8634 1.4386 -2.3186 -1.1087 0.8620 2.2056 -0.0000 0.0000 0.0000 -88.3441 23.4716 38.9121 87.1392 -59.9691 -57.5227 -0.0000 0.0000 -9.6997 29.7582 0.0173 0.0099 -7.1250 0.0000 -0.0000 2.5175 29.9950 -0.9226 -0.0000 0.0000 0.0000 89.3239 -14.6206 24.9975 -42.9159 49.7056 -20.6366 0.0000 -0.0000 -7.2735 -26.0729 -3.7088 1.8129 7.1250 -0.0000 -0.0000 0.4544 -34.1071 0.1214
0.00 0.00 0.00 -186.8040 3.4442 -157.2300 0.0000 0.0000 0.0000 -30.6357 -12.9312 -32.6687 9.4868 17.1110 57.7588 2.0482 -20.8275 -27.6858 0.4979 4.5239 12.5554 0.0000 0.0000 0.0000 2.9755 3.2440 -52.7207 -23.7909 -19.6519 101.1458 -0.1670 -3.3274 -9.6855 -0.0048 -0.4452 1.2233 -2.5163 -3.8675 16.5102 1.9680 -5.3847 -1.1496 4.8888 -2.3419 -10.0930 1.2343 1.1341 -16.4710 -1.7257 1.8999 -2.3867 -0.6364 1.1252 2.0927 0.0000 -0.0000 0.0000 -89.2383 5.3750 40.9707 104.3338 -59.2093 -72.3805 -0.0000 0.0000 -7.6087 28.3111 0.5966 0.3214 -7.1250 0.0000 -0.0000 1.3847 30.6558 -0.4853 0.0000 -0.0000 0.0000 90.8625 -25.2516 3.2552 -33.0547 43.3720 -13.4596 0.0000 -0.0000 -2.6696 -29.2698 -3.9359 2.2032 7.1250 -0.0000 -0.0000 -2.1780 -34.4831 -0.5626
0.00 0.00 0.00 -188.0240 3.9619 -158.4460 0.0000 0.0000 0.0000 -33.7240 -8.2676 -19.3965 6.8579 15.2111 48.3349 1.1896 -21.9156 -23.2906 0.2055 2.9190 8.0533 0.0000 0.0000 0.0000 -1.1096 7.2638 -65.9617 -22.7077 -19.8233 97.9393 -0.3447 -3.5739 -12.9910 -0.0389 1.2729 -3.5000 -3.5381 -4.6145 14.9458 2.0496 -6.5661 -1.4308 5.6657 -2.9022 -9.2763 1.1147 2.0880 -16.4535 -2.2515 3.0971 -0.9216 -0.6990 1.6395 2.6224 -0.0000 0.0000 0.0000 -88.2595 -0.4072 41.4789 124.5701 -54.9637 -89.4323 -0.0000 0.0000 -9.3834 28.8000 0.3711 0.2040 -7.1250 0.0000 -0.0000 1.7690 30.4007 -0.6308 -0.0000 0.0000 0.0000 89.0651 -33.4674 -3.8401 -35.5705 45.2153 -15.2169 0.0000 -0.0000 -5.4421 -29.3278 -3.7726 2.1170 7.1250 -0.0000 -0.0000 -2.2260 -34.2985 -0.5849
0.00 0.00 0.00 -188.5280 5.1250 -159.7650 0.0000 0.0000 0.0000 -35.0654 -3.4852 -6.1759 4.1093 12.3045 36.8179 -0.7301 -19.8812 -6.7685 0.0005 0.1415 0.3888 0.0000 0.0000 0.0000 -3.0030 10.8508 -72.9235 -18.0657 -19.9101 84.3365 -0.5178 -2.1036 -14.5193 -0.7939 5.6875 -15.8804 -4.3365 -5.4584 12.8111 2.7420 -7.7326 -1.8450 6.8388 -3.4792 -8.1791 1.3588 3.4894 -16.3506 -4.0887 4.9319 0.6902 -1.2036 2.4115 3.2723 0.0000 -0.0000 0.0000 -84.9244 -2.5208 41.4765 139.7893 -48.1942 -101.4038 -0.0000 0.0000 -9.5797 29.1618 -2.2466 -1.2531 -7.1250 0.0000 -0.0000 1.9785 27.4060 -0.8462 0.0000 -0.0000 0.0000 84.5545 -40.5004 -5.3951 -41.8651 49.1369 -19.8385 0.0000 -0.0000 -9.3727 -28.7760 -3.1046 1.7038 7.1250 -0.0000 -0.0000 -1.7731 -33.5169 -0.4994
0.00 0.00 0.00 -188.9280 6.4305 -161.2530 0.0000 0.0000 0.0000 -36.1117 -1.6986 2.4190 2.7682 10.3100 29.9866 -0.2332 -11.9472 13.2945 0.0385 -1.2673 -3.4845 0.0000 0.0000 0.0000 -2.5192 12.2876 -73.7973 -13.6364 -19.0000 71.0908 -0.4908 -0.4137 -13.3915 -1.7086 8.2308 -23.4172 -4.7125 -5.7784 11.5610 3.0207 -8.1617 -2.0409 7.2559 -3.7057 -7.5281 1.6727 4.3145 -16.5915 -5.4356 6.0530 2.7097 -1.4571 2.8305 3.6746 0.0000 0.0000 0.0000 -82.1779 -2.2586 41.4240 145.9051 -44.1549 -105.8209 -0.0000 0.0000 -2.5088 29.3691 -4.6799 -2.6289 -7.1250 0.0000 -0.0000 2.0254 24.6135 -0.9984 0.0000 0.0000 0.0000 81.2565 -43.5268 -5.9768 -46.3575 51.4164 -23.2951 0.0000 -0.0000 -8.2766 -28.2972 -2.3464 1.2627 7.1250 -0.0000 -0.0000 -1.3838 -32.6421 -0.4189
